<!-- icon666.com - MILLIONS vector ICONS FREE --><svg version="1.1" id="Capa_1" xmlns="http://www.w3.org/2000/svg" xmlns:xlink="http://www.w3.org/1999/xlink" x="0px" y="0px" viewBox="0 0 512 512" style="enable-background:new 0 0 512 512;" xml:space="preserve"><g><g><path d="M442.182,58.182c-12.835,0-23.273,10.438-23.273,23.273c0,1.827,0.256,3.572,0.663,5.283l-54.016,50.735 c-6.563-6.656-13.463-13.044-21.108-18.793c-5.143-3.84-12.439-2.816-16.291,2.316c-3.863,5.132-2.828,12.428,2.316,16.291 c30.324,22.784,51.06,54.4,60.044,89.984c-35.561-25.926-78.127-40.145-122.88-40.145c-30.068,0-59.089,6.249-86.26,18.572 c-5.853,2.665-8.448,9.553-5.795,15.407s9.553,8.448,15.407,5.795c24.122-10.95,49.92-16.5,76.637-16.5 c47.849,0,92.94,18.129,127.639,50.921c0.093,2.129,0.372,4.189,0.372,6.319c0,10.298-1.07,20.329-2.909,30.103 C356.62,270.708,312.867,256,267.636,256c-30.057,0-59.089,6.237-86.26,18.548c-5.853,2.665-8.448,9.542-5.807,15.407 c2.653,5.865,9.565,8.436,15.407,5.795c24.134-10.927,49.932-16.477,76.66-16.477c43.287,0,84.957,15.325,118.377,43.008 c-13.999,39.156-42.543,71.436-79.081,90.287c-3.375,0.268-6.749,0.524-10.193,0.524c-80.221,0-145.466-65.245-145.466-145.455 c0-54.644,30.185-104.192,78.767-129.292c5.713-2.956,7.948-9.972,4.992-15.686s-9.972-7.936-15.674-5.004 C163.002,146.781,128,204.253,128,267.636c0,42.065,15.558,80.489,41.123,110.034l-14.452,32.931 c-52.375-28.649-84.852-83.177-84.852-142.964c0-89.833,73.076-162.909,162.909-162.909c21.9,0,43.136,4.259,63.104,12.672 c0.454,0.198,0.919,0.361,1.385,0.5c5.911,1.652,12.125-1.524,14.173-7.331c0-0.012,0.012-0.035,0.012-0.047l28.544-64.233 c11.66-1.268,20.783-11.043,20.783-23.017C360.727,10.438,350.289,0,337.454,0c-12.835,0-23.273,10.438-23.273,23.273 c0,5.097,1.699,9.775,4.48,13.615l-24.425,54.97c-19.689-6.912-40.332-10.403-61.51-10.403 c-102.656,0-186.182,83.526-186.182,186.182c0,46.895,17.513,90.961,47.825,124.591l-44.148,41.484 c-4.689,4.398-4.911,11.764-0.512,16.442c2.281,2.444,5.376,3.665,8.471,3.665c2.863,0,5.725-1.047,7.971-3.153l44.893-42.17 c10.38,8.96,21.807,16.908,34.246,23.529l-27.939,63.663c-2.583,5.888,0.093,12.753,5.981,15.337 c1.513,0.663,3.095,0.977,4.666,0.977c4.48,0,8.739-2.595,10.659-6.958l48.186-109.754c18.071,15.546,39.366,27.427,62.848,34.257 c-5.585,0.593-11.229,1.001-16.966,1.001c-7.273,0-14.58-0.477-21.737-1.431c-6.4-0.815-12.218,3.631-13.068,9.996 c-0.849,6.377,3.631,12.23,9.996,13.068c8.169,1.094,16.524,1.641,24.809,1.641c102.656,0,186.182-83.526,186.182-186.182 c0-41.565-13.673-80.605-38.097-112.57l54.737-51.421c2.118,0.64,4.317,1.082,6.633,1.082c12.835,0,23.273-10.438,23.273-23.273 S455.017,58.182,442.182,58.182z" fill="#000000" style="fill: rgb(246, 188, 174);"></path></g></g></svg>